<mxfile modified="2021-05-10T23:48:45.724Z" host="app.diagrams.net" agent="5.0 (Windows NT 10.0; Win64; x64) AppleWebKit/537.36 (KHTML, like Gecko) Chrome/90.0.4430.93 Safari/537.36" etag="zeDZ8rwSLeIqE0tANhUL" compressed="false" version="14.6.11" type="google">
  <diagram id="7jLlEumUiMLtJq0d6O2o" name="TODO VIEW">
    <mxGraphModel dx="1711" dy="681" grid="1" gridSize="10" guides="1" tooltips="1" connect="1" arrows="1" fold="1" page="1" pageScale="1" pageWidth="827" pageHeight="1169" math="0" shadow="0">
      <root>
        <mxCell id="R8PEM5ubBwQ5RRjLXsm--0" />
        <mxCell id="R8PEM5ubBwQ5RRjLXsm--1" parent="R8PEM5ubBwQ5RRjLXsm--0" />
        <mxCell id="l9LYidoEel3wWBmEn9x7-0" value="TODO&lt;br&gt;&amp;nbsp;View" style="text;html=1;strokeColor=none;fillColor=none;align=center;verticalAlign=middle;whiteSpace=wrap;rounded=0;fontSize=48;opacity=30;" parent="R8PEM5ubBwQ5RRjLXsm--1" vertex="1">
          <mxGeometry x="160" y="200" width="480" height="320" as="geometry" />
        </mxCell>
      </root>
    </mxGraphModel>
  </diagram>
</mxfile>
